<?xml version="1.0" encoding="utf-8"?>
<!-- Generator: Adobe Illustrator 26.0.0, SVG Export Plug-In . SVG Version: 6.00 Build 0)  -->
<svg version="1.2" baseProfile="tiny" id="katman_1"
	 xmlns="http://www.w3.org/2000/svg" xmlns:xlink="http://www.w3.org/1999/xlink" x="0px" y="0px" viewBox="0 0 640 320"
	 overflow="visible" xml:space="preserve">
<g>
	<g>
		<path d="M144.9,138.1V223c0,69.1-70,69.1-70,69.1h-29c-1.8,0-3.2-1.5-3.2-2.6v-38.1c0-1.5,1.5-2.6,3.2-2.6h29
			c25.5,0,25.5-25.8,25.5-25.8v-84.9H144.9z M59.1,95.4V60.6c0-1.2,1.2-2.6,3.2-2.6h79.6c2,0,2.9,1.5,2.9,2.6V98h-44.5H62.3
			C60.3,98,59.1,96.6,59.1,95.4z"/>
		<path d="M252.3,138.1V223c0,69.1-70,69.1-70,69.1h-29c-1.8,0-3.2-1.5-3.2-2.6v-38.1c0-1.5,1.5-2.6,3.2-2.6h29
			c25.5,0,25.5-25.8,25.5-25.8v-84.9H252.3z M166.5,95.4V60.6c0-1.2,1.2-2.6,3.2-2.6h79.6c2,0,2.9,1.5,2.9,2.6V98h-44.5h-38.1
			C167.7,98,166.5,96.6,166.5,95.4z"/>
		<path d="M403,223.9c0,43.9-35.1,68.2-72.6,68.2c0,0,0,0-0.3,0v-42.2c0.3,0,0.3,0,0.3,0c15.5,0,29.3-10.5,29.3-26.1
			c0-17.3-16.1-27.8-29.3-28.4c-2,0-17.9,0-34.8-7.9c-24.3-11.1-38.1-31.9-38.1-59.1c0-43.9,35.4-70.5,72.9-70.5
			c40.1,0,71.1,26.9,71.7,66.7c0.3,0.9-1.2,2.3-3.2,2.3h-36.6c-1.8,0-3.2-1.5-3.2-2.3c-0.6-16.7-13.5-24.6-28.7-24.6
			c-16.1,0-29.3,9.7-29.3,28.4c0,17,14.3,25.8,29.3,25.8c1.5,0,17.9,0,34.5,7.9C389.6,173.5,403,196.4,403,223.9z"/>
		<path d="M626.7,62.3L545.9,175c17.3,23.7,34.5,48,51.8,72.3h-54.4l-24.3-34.2L463,291.2c-0.3,0.6-2,0.9-2.6,0.9h-46.8
			c-2.9,0-4.1-2.3-2.3-4.4L491.4,175c-17.3-23.7-34.2-48-51.5-72.3h54.4l24.6,34.2l55.3-78.2c0.3-0.6,2-0.9,2.6-0.9h46.8
			C627,57.9,628.1,60.3,626.7,62.3z"/>
	</g>
	<g>
		<path fill="#66F0FF" d="M129.9,123.1V208c0,69.1-70,69.1-70,69.1h-29c-1.8,0-3.2-1.5-3.2-2.6v-38.1c0-1.5,1.5-2.6,3.2-2.6h29
			c25.5,0,25.5-25.8,25.5-25.8v-84.9H129.9z M44.1,80.4V45.6c0-1.2,1.2-2.6,3.2-2.6h79.6c2,0,2.9,1.5,2.9,2.6V83H85.4H47.3
			C45.3,83,44.1,81.6,44.1,80.4z"/>
		<path fill="#66F0FF" d="M237.3,123.1V208c0,69.1-70,69.1-70,69.1h-29c-1.8,0-3.2-1.5-3.2-2.6v-38.1c0-1.5,1.5-2.6,3.2-2.6h29
			c25.5,0,25.5-25.8,25.5-25.8v-84.9H237.3z M151.5,80.4V45.6c0-1.2,1.2-2.6,3.2-2.6h79.6c2,0,2.9,1.5,2.9,2.6V83h-44.5h-38.1
			C152.7,83,151.5,81.6,151.5,80.4z"/>
		<path fill="#66F0FF" d="M388,208.9c0,43.9-35.1,68.2-72.6,68.2c0,0,0,0-0.3,0v-42.2c0.3,0,0.3,0,0.3,0c15.5,0,29.3-10.5,29.3-26.1
			c0-17.3-16.1-27.8-29.3-28.4c-2,0-17.9,0-34.8-7.9c-24.3-11.1-38.1-31.9-38.1-59.1c0-43.9,35.4-70.5,72.9-70.5
			c40.1,0,71.1,26.9,71.7,66.7c0.3,0.9-1.2,2.3-3.2,2.3h-36.6c-1.8,0-3.2-1.5-3.2-2.3c-0.6-16.7-13.5-24.6-28.7-24.6
			c-16.1,0-29.3,9.7-29.3,28.4c0,17,14.3,25.8,29.3,25.8c1.5,0,17.9,0,34.5,7.9C374.6,158.5,388,181.4,388,208.9z"/>
		<path fill="#66F0FF" d="M611.7,47.3L530.9,160c17.3,23.7,34.5,48,51.8,72.3h-54.4l-24.3-34.2L448,276.2c-0.3,0.6-2,0.9-2.6,0.9
			h-46.8c-2.9,0-4.1-2.3-2.3-4.4L476.4,160c-17.3-23.7-34.2-48-51.5-72.3h54.4l24.6,34.2l55.3-78.2c0.3-0.6,2-0.9,2.6-0.9h46.8
			C612,42.9,613.1,45.3,611.7,47.3z"/>
	</g>
</g>
</svg>
